<!--?xml version="1.0" encoding="utf-8"?-->
<!-- Generator: Adobe Illustrator 18.1.1, SVG Export Plug-In . SVG Version: 6.00 Build 0)  -->

<svg version="1.1" id="_x32_" xmlns="http://www.w3.org/2000/svg" xmlns:xlink="http://www.w3.org/1999/xlink" x="0px" y="0px" viewBox="0 0 512 512" style="width: 256px; height: 256px; opacity: 1;" xml:space="preserve">
<style type="text/css">
	.st0{fill:#4B4B4B;}
</style>
<g>
	<path class="st0" d="M366.138,183.23c-6.332,0-12.54,0.543-18.593,1.522c14.761-19.35,23.561-43.486,23.561-69.654
		C371.105,51.636,319.469,0,256.008,0c-63.47,0-115.106,51.636-115.106,115.098c0,26.167,8.792,50.303,23.552,69.654
		c-6.052-0.978-12.261-1.522-18.585-1.522c-63.478,0-115.114,51.644-115.114,115.098c0,63.478,51.636,115.097,115.114,115.097
		c35.468,0,67.228-16.143,88.354-41.464c-3.618,50.608-11.53,98.889-26.472,140.04h96.496
		c-14.934-41.151-22.854-89.431-26.471-140.04c21.126,25.321,52.885,41.464,88.362,41.464c63.47,0,115.106-51.62,115.106-115.097
		C481.244,234.874,429.607,183.23,366.138,183.23z" style="fill: rgb(58, 171, 210);"></path>
</g>
</svg>
